HIERARCHY
ROOT hip
{
  OFFSET 5.51535 103.731 -2.80141
  CHANNELS 6 Xposition Yposition Zposition Zrotation Xrotation Yrotation
  JOINT abdomen
  {
    OFFSET 0 -1.186 -1.5018
    CHANNELS 6 Xposition Yposition Zposition Zrotation Xrotation Yrotation
    JOINT abdomen2
    {
      OFFSET 0 9.964 0.2134
      CHANNELS 6 Xposition Yposition Zposition Zrotation Xrotation Yrotation
      JOINT chest
      {
        OFFSET 0 13.134 -3.2573
        CHANNELS 6 Xposition Yposition Zposition Zrotation Xrotation Yrotation
        JOINT neck
        {
          OFFSET 0 20.686 -1.6905
          CHANNELS 6 Xposition Yposition Zposition Zrotation Xrotation Yrotation
          JOINT head
          {
            OFFSET 0 7.23801 -0.1237
            CHANNELS 6 Xposition Yposition Zposition Zrotation Xrotation Yrotation
            End Site
            {
              OFFSET 0 0 0
            }
          }
        }
        JOINT lCollar
        {
          OFFSET 1.7069 20.075 5.0056
          CHANNELS 6 Xposition Yposition Zposition Zrotation Xrotation Yrotation
          JOINT lShldr
          {
            OFFSET 13.6458 -0.0470195 -4.849
            CHANNELS 6 Xposition Yposition Zposition Zrotation Xrotation Yrotation
            JOINT lForeArm
            {
              OFFSET 28.3255 -0.97589 2.2888
              CHANNELS 6 Xposition Yposition Zposition Zrotation Xrotation Yrotation
              JOINT lHand
              {
                OFFSET 22.1583 -0.529998 10.8316
                CHANNELS 6 Xposition Yposition Zposition Zrotation Xrotation Yrotation
                JOINT lThumb1
                {
                  OFFSET 0.786 0.111997 2.5817
                  CHANNELS 6 Xposition Yposition Zposition Zrotation Xrotation Yrotation
                  JOINT lThumb2
                  {
                    OFFSET 0.360097 -0.877999 4.2331
                    CHANNELS 6 Xposition Yposition Zposition Zrotation Xrotation Yrotation
                    JOINT lThumb2_End
                    {
                      OFFSET 1.8127 -1.21601 2.2227
                      CHANNELS 6 Xposition Yposition Zposition Zrotation Xrotation Yrotation
                      End Site
                      {
                        OFFSET 0.0180981 -0.012195 0.0222007
                      }
                    }
                  }
                }
                JOINT lCarpal1
                {
                  OFFSET 0.9571 1.114 1.7695
                  CHANNELS 6 Xposition Yposition Zposition Zrotation Xrotation Yrotation
                  JOINT lIndex1
                  {
                    OFFSET 4.12461 0.486992 4.1451
                    CHANNELS 6 Xposition Yposition Zposition Zrotation Xrotation Yrotation
                    JOINT lIndex2
                    {
                      OFFSET 3.4052 -1.45401 2.7682
                      CHANNELS 6 Xposition Yposition Zposition Zrotation Xrotation Yrotation
                      JOINT lIndex2_End
                      {
                        OFFSET 1.45309 -1.79499 1.2713
                        CHANNELS 6 Xposition Yposition Zposition Zrotation Xrotation Yrotation
                        End Site
                        {
                          OFFSET 0.0144979 -0.0179083 0.0126995
                        }
                      }
                    }
                  }
                  JOINT lMid1
                  {
                    OFFSET 5.6954 0.209987 2.1184
                    CHANNELS 6 Xposition Yposition Zposition Zrotation Xrotation Yrotation
                    JOINT lMid2
                    {
                      OFFSET 3.9766 -1.53999 2.3863
                      CHANNELS 6 Xposition Yposition Zposition Zrotation Xrotation Yrotation
                      JOINT lMid2_End
                      {
                        OFFSET 1.4042 -1.926 1.125
                        CHANNELS 6 Xposition Yposition Zposition Zrotation Xrotation Yrotation
                        End Site
                        {
                          OFFSET 0.013999 -0.0193044 0.011301
                        }
                      }
                    }
                  }
                }
                JOINT lCarpal2
                {
                  OFFSET 2.0956 0.66 -0.3894
                  CHANNELS 6 Xposition Yposition Zposition Zrotation Xrotation Yrotation
                  JOINT lRing1
                  {
                    OFFSET 5.0395 -0.090013 2.4971
                    CHANNELS 6 Xposition Yposition Zposition Zrotation Xrotation Yrotation
                    JOINT lRing2
                    {
                      OFFSET 3.7921 -1.55199 1.4806
                      CHANNELS 6 Xposition Yposition Zposition Zrotation Xrotation Yrotation
                      JOINT lRing2_End
                      {
                        OFFSET 1.4655 -1.808 0.9609
                        CHANNELS 6 Xposition Yposition Zposition Zrotation Xrotation Yrotation
                        End Site
                        {
                          OFFSET 0.0147015 -0.0181014 0.00959957
                        }
                      }
                    }
                  }
                  JOINT lPinky1
                  {
                    OFFSET 4.9141 -1.269 0.3591
                    CHANNELS 6 Xposition Yposition Zposition Zrotation Xrotation Yrotation
                    JOINT lPinky2
                    {
                      OFFSET 3.1477 -1.685 0.8462
                      CHANNELS 6 Xposition Yposition Zposition Zrotation Xrotation Yrotation
                      JOINT lPinky2_End
                      {
                        OFFSET 0.805498 -1.58501 0.795499
                        CHANNELS 6 Xposition Yposition Zposition Zrotation Xrotation Yrotation
                        End Site
                        {
                          OFFSET 0.00809703 -0.0157944 0.00799848
                        }
                      }
                    }
                  }
                }
              }
            }
          }
        }
        JOINT rCollar
        {
          OFFSET -1.7069 20.075 5.0056
          CHANNELS 6 Xposition Yposition Zposition Zrotation Xrotation Yrotation
          JOINT rShldr
          {
            OFFSET -13.6458 -0.0470107 -4.849
            CHANNELS 6 Xposition Yposition Zposition Zrotation Xrotation Yrotation
            JOINT rForeArm
            {
              OFFSET -28.3255 -0.975895 2.2888
              CHANNELS 6 Xposition Yposition Zposition Zrotation Xrotation Yrotation
              JOINT rHand
              {
                OFFSET -22.1583 -0.530007 10.8316
                CHANNELS 6 Xposition Yposition Zposition Zrotation Xrotation Yrotation
                JOINT rThumb1
                {
                  OFFSET -0.785997 0.112005 2.5817
                  CHANNELS 6 Xposition Yposition Zposition Zrotation Xrotation Yrotation
                  JOINT rThumb2
                  {
                    OFFSET -0.360106 -0.877994 4.2331
                    CHANNELS 6 Xposition Yposition Zposition Zrotation Xrotation Yrotation
                    JOINT rThumb2_End
                    {
                      OFFSET -1.8127 -1.216 2.2227
                      CHANNELS 6 Xposition Yposition Zposition Zrotation Xrotation Yrotation
                      End Site
                      {
                        OFFSET -0.0180972 -0.0121973 0.0222005
                      }
                    }
                  }
                }
                JOINT rCarpal1
                {
                  OFFSET -0.9571 1.114 1.7695
                  CHANNELS 6 Xposition Yposition Zposition Zrotation Xrotation Yrotation
                  JOINT rIndex1
                  {
                    OFFSET -4.1246 0.487011 4.1451
                    CHANNELS 6 Xposition Yposition Zposition Zrotation Xrotation Yrotation
                    JOINT rIndex2
                    {
                      OFFSET -3.4052 -1.45401 2.7682
                      CHANNELS 6 Xposition Yposition Zposition Zrotation Xrotation Yrotation
                      JOINT rIndex2_End
                      {
                        OFFSET -1.4531 -1.795 1.2713
                        CHANNELS 6 Xposition Yposition Zposition Zrotation Xrotation Yrotation
                        End Site
                        {
                          OFFSET -0.0145077 -0.0180048 0.0127017
                        }
                      }
                    }
                  }
                  JOINT rMid1
                  {
                    OFFSET -5.6954 0.210002 2.1184
                    CHANNELS 6 Xposition Yposition Zposition Zrotation Xrotation Yrotation
                    JOINT rMid2
                    {
                      OFFSET -3.9766 -1.54 2.3863
                      CHANNELS 6 Xposition Yposition Zposition Zrotation Xrotation Yrotation
                      JOINT rMid2_End
                      {
                        OFFSET -1.4042 -1.926 1.125
                        CHANNELS 6 Xposition Yposition Zposition Zrotation Xrotation Yrotation
                        End Site
                        {
                          OFFSET -0.0139948 -0.0192916 0.0112994
                        }
                      }
                    }
                  }
                }
                JOINT rCarpal2
                {
                  OFFSET -2.0956 0.66 -0.3894
                  CHANNELS 6 Xposition Yposition Zposition Zrotation Xrotation Yrotation
                  JOINT rRing1
                  {
                    OFFSET -5.03951 -0.0899879 2.4971
                    CHANNELS 6 Xposition Yposition Zposition Zrotation Xrotation Yrotation
                    JOINT rRing2
                    {
                      OFFSET -3.7921 -1.55201 1.4806
                      CHANNELS 6 Xposition Yposition Zposition Zrotation Xrotation Yrotation
                      JOINT rRing2_End
                      {
                        OFFSET -1.4655 -1.808 0.960901
                        CHANNELS 6 Xposition Yposition Zposition Zrotation Xrotation Yrotation
                        End Site
                        {
                          OFFSET -0.0146934 -0.0180999 0.00959832
                        }
                      }
                    }
                  }
                  JOINT rPinky1
                  {
                    OFFSET -4.91411 -1.26899 0.359202
                    CHANNELS 6 Xposition Yposition Zposition Zrotation Xrotation Yrotation
                    JOINT rPinky2
                    {
                      OFFSET -3.14769 -1.68501 0.846199
                      CHANNELS 6 Xposition Yposition Zposition Zrotation Xrotation Yrotation
                      JOINT rPinky2_End
                      {
                        OFFSET -0.805498 -1.585 0.7955
                        CHANNELS 6 Xposition Yposition Zposition Zrotation Xrotation Yrotation
                        End Site
                        {
                          OFFSET -0.00810035 -0.0158035 0.00800029
                        }
                      }
                    }
                  }
                }
              }
            }
          }
        }
      }
    }
  }
  JOINT lThigh
  {
    OFFSET 8.367 -8.2066 0.5982
    CHANNELS 6 Xposition Yposition Zposition Zrotation Xrotation Yrotation
    JOINT lShin
    {
      OFFSET 2.1923 -43.463 -0.4932
      CHANNELS 6 Xposition Yposition Zposition Zrotation Xrotation Yrotation
      JOINT lFoot
      {
        OFFSET 0.733301 -45.8593 -2.6451
        CHANNELS 6 Xposition Yposition Zposition Zrotation Xrotation Yrotation
        End Site
        {
          OFFSET 2.6618 -4.2699 12.3931
        }
      }
    }
  }
  JOINT rThigh
  {
    OFFSET -8.367 -8.2066 0.5982
    CHANNELS 6 Xposition Yposition Zposition Zrotation Xrotation Yrotation
    JOINT rShin
    {
      OFFSET -2.1923 -43.463 -0.4931
      CHANNELS 6 Xposition Yposition Zposition Zrotation Xrotation Yrotation
      JOINT rFoot
      {
        OFFSET -0.733299 -45.8593 -2.6451
        CHANNELS 6 Xposition Yposition Zposition Zrotation Xrotation Yrotation
        End Site
        {
          OFFSET -2.6618 -4.2699 12.3931
        }
      }
    }
  }
}
MOTION
Frames:	4
Frame Time:	0.0333333
-22.1158 103.761 -26.0683 3.41102 -7.45058 55.865 -2.07154e-006 -1.18599 -1.5018 -0.417259 2.64679 -0.0488602 -6.16592e-007 9.964 0.213401 -0.833564 5.29388 -0.0785125 -6.52412e-008 13.134 -3.2573 -0.833566 5.29388 -0.0785088 -1.00308e-006 20.686 -1.6905 -0.930948 -9.06656 -20.948 2.19507e-006 7.238 -0.123702 1.80001 -2.88591 -19.198 1.7069 20.075 5.0056 -1.36985 0.158351 1.85399 13.6458 -0.0470058 -4.849 -65.8492 -0.795731 22.1461 28.3255 -0.975899 2.28881 -5.23997 3.97463 -11.3996 22.1583 -0.529996 10.8316 -6.47937 -19.8335 5.04223 0.786001 0.111998 2.5817 2.08095e-005 -8.19594e-006 4.95211e-006 0.360095 -0.878 4.2331 1.14596e-005 -8.15479e-006 8.89248e-006 1.81269 -1.21601 2.2227 -2.61842e-005 8.81948e-006 -1.26176e-005 0.9571 1.114 1.7695 1.59028e-015 0 1.98785e-015 4.1246 0.486994 4.1451 -6.12635e-005 -0.000126606 -2.33997e-005 3.4052 -1.454 2.7682 -1.51236e-005 -7.96744e-006 1.515e-005 1.4531 -1.79499 1.2713 -4.58226e-005 -2.01236e-005 3.77779e-006 5.6954 0.209988 2.1184 -6.90249e-005 -0.000134906 -6.38726e-006 3.9766 -1.53999 2.3863 -4.21733e-005 1.69789e-005 2.77744e-005 1.4042 -1.926 1.125 5.0864e-005 -2.62724e-005 -7.77874e-005 2.0956 0.66 -0.3894 1.59028e-015 0 1.98785e-015 5.0395 -0.0900147 2.4971 -1.09143e-005 3.40203e-005 -3.26848e-005 3.7921 -1.55199 1.4806 7.03702e-005 -3.16314e-005 4.28739e-005 1.4655 -1.808 0.960899 -1.48153e-005 -2.62434e-005 4.46629e-005 4.9141 -1.269 0.3591 -1.33833e-005 6.39731e-006 -1.08481e-005 3.1477 -1.685 0.8462 -3.07813e-005 -3.08558e-005 -1.42134e-005 0.805497 -1.58501 0.7955 -1.86626e-005 -2.97584e-005 4.07517e-005 -1.7069 20.075 5.0056 -8.26589 -0.0337394 0.526996 -13.6458 -0.0470219 -4.849 41.0608 -1.95373 3.22595 -28.3255 -0.97589 2.2888 17.5165 19.3537 57.2645 -22.1583 -0.53001 10.8316 15.7555 1.19652 2.87195 -0.786001 0.112004 2.5817 0.000140195 -3.50825e-005 -6.53342e-006 -0.360104 -0.877993 4.2331 -4.07583e-005 -3.94936e-006 1.72388e-007 -1.8127 -1.216 2.2227 5.11476e-005 -4.26606e-006 -3.83588e-005 -0.9571 1.114 1.7695 0 3.18055e-015 -0 -4.12461 0.487012 4.1451 7.47433e-006 3.78101e-005 -7.53739e-006 -3.4052 -1.45401 2.7682 5.2879e-006 2.53785e-006 -2.93404e-006 -1.4531 -1.795 1.2713 -6.13554e-005 1.52288e-005 2.50379e-005 -5.6954 0.210003 2.1184 -1.65757e-005 7.1443e-005 3.71716e-006 -3.9766 -1.54 2.3863 -6.17988e-005 -9.20043e-008 8.03123e-006 -1.4042 -1.926 1.125 -4.67508e-005 7.1356e-005 5.91564e-005 -2.0956 0.66 -0.3894 0 3.18055e-015 -0 -5.03951 -0.0899888 2.4971 1.65806e-005 -5.15114e-006 1.21093e-006 -3.7921 -1.55201 1.4806 -1.77833e-005 3.28877e-005 2.51956e-006 -1.4655 -1.808 0.960901 2.48207e-006 9.02609e-005 0.000137789 -4.91411 -1.26899 0.359202 2.25266e-005 1.40643e-005 -1.41572e-005 -3.14769 -1.68501 0.8462 -6.25293e-005 0.000136769 0.00010858 -0.805497 -1.58499 0.795501 -3.35574e-005 3.10643e-006 -5.80185e-006 8.36701 -8.20662 0.598202 11.1317 12.1367 -10.965 2.1923 -43.463 -0.493203 0.0913843 5.64624 0.603805 0.7333 -45.8593 -2.6451 4.73603 -0.105867 -0.353698 -8.36702 -8.20662 0.598196 7.09979 8.76963 9.2335 -2.19223 -43.463 -0.493422 -0.298515 0.828837 -2.06567 -0.733299 -45.8593 -2.6451 -5.28582 1.67022 -18.8675 
-22.1404 103.633 -27.5369 3.44366 -8.17498 57.4726 -4.82169e-007 -1.186 -1.5018 -0.241009 2.60815 -0.269325 1.33809e-006 9.96399 0.2134 -0.470487 5.21735 -0.528273 -1.2282e-007 13.134 -3.2573 -0.470485 5.21735 -0.528301 -3.35291e-006 20.686 -1.6905 -0.978429 -8.50526 -21.7851 7.24526e-007 7.23801 -0.123699 2.71329 -2.56932 -18.9307 1.7069 20.075 5.0056 -0.542881 0.140166 1.60633 13.6458 -0.0470077 -4.84899 -65.837 -0.657989 23.1909 28.3255 -0.975893 2.28881 -5.23855 5.20088 -10.9337 22.1583 -0.529987 10.8316 -6.83388 -17.8512 6.44204 0.786007 0.111998 2.5817 2.28138e-006 -3.83276e-005 8.0797e-006 0.360099 -0.878001 4.2331 -7.79876e-007 -1.56053e-005 1.283e-005 1.8127 -1.21601 2.2227 -2.84327e-006 1.62276e-005 -2.6197e-005 0.9571 1.114 1.7695 -3.18055e-015 3.18055e-015 -3.18055e-015 4.12461 0.486994 4.1451 1.30596e-005 -1.14671e-005 -1.19319e-005 3.4052 -1.454 2.7682 -3.33857e-005 -3.73228e-005 1.70581e-005 1.4531 -1.79499 1.2713 -4.86114e-005 -1.51216e-005 -1.31314e-007 5.69541 0.209986 2.1184 -2.99941e-006 9.55681e-006 -1.05943e-007 3.9766 -1.53999 2.3863 -3.44693e-005 3.53938e-006 4.39064e-005 1.4042 -1.926 1.125 3.40134e-005 -1.41104e-005 -6.50231e-005 2.0956 0.66 -0.3894 -3.18055e-015 3.18055e-015 -3.18055e-015 5.03951 -0.0900132 2.4971 1.49515e-006 3.37535e-005 -4.23956e-005 3.7921 -1.55199 1.4806 5.76446e-005 -3.8471e-005 5.51555e-005 1.4655 -1.808 0.960901 -6.2677e-007 -5.74984e-005 6.80865e-005 4.9141 -1.269 0.3591 -7.02276e-006 1.59952e-005 -1.44975e-005 3.1477 -1.685 0.846201 -2.7887e-005 -9.1702e-005 -5.70352e-006 0.8055 -1.58501 0.795501 -3.05396e-005 -4.29279e-005 6.4847e-005 -1.7069 20.075 5.0056 -9.23646 -0.0134894 -1.11231 -13.6458 -0.0470072 -4.84901 38.9812 -6.08152 2.02457 -28.3255 -0.975892 2.28879 8.45174 15.1737 48.1388 -22.1583 -0.530005 10.8316 20.5636 -9.33092 2.61457 -0.786007 0.112002 2.5817 0.000155401 -9.31832e-005 -1.31434e-005 -0.360107 -0.877993 4.2331 -5.09608e-005 2.38363e-006 2.20072e-005 -1.81269 -1.216 2.2227 5.03174e-005 -1.20954e-006 -3.03088e-005 -0.9571 1.114 1.7695 6.36111e-015 -1.59028e-015 4.37326e-015 -4.12461 0.487011 4.1451 4.26808e-006 5.65704e-005 -2.52763e-005 -3.4052 -1.45401 2.7682 -7.91091e-007 2.48533e-005 1.45736e-005 -1.4531 -1.795 1.2713 -7.45531e-005 4.33189e-005 4.07558e-005 -5.6954 0.21 2.1184 -4.1379e-005 0.000150574 -5.17738e-006 -3.9766 -1.54 2.3863 -6.49554e-005 2.51944e-005 2.53724e-005 -1.4042 -1.926 1.125 -6.9686e-005 0.000135344 0.000119363 -2.0956 0.66 -0.3894 6.36111e-015 -1.59028e-015 4.37326e-015 -5.03951 -0.089986 2.4971 3.21707e-005 -7.55857e-006 8.16139e-006 -3.7921 -1.55201 1.4806 -2.71335e-005 5.84103e-005 1.87953e-005 -1.4655 -1.808 0.960901 1.97651e-005 -9.69749e-006 2.31195e-005 -4.91411 -1.26899 0.359202 2.15724e-005 2.00865e-005 -2.58522e-005 -3.14769 -1.68501 0.846199 -3.3805e-006 -1.69537e-005 -1.87352e-006 -0.805497 -1.58499 0.795502 -3.95135e-005 1.21967e-005 2.8604e-005 8.367 -8.2066 0.598199 11.8109 14.3398 -7.27333 2.1923 -43.463 -0.493199 0.101545 1.49444 0.443452 0.733295 -45.8593 -2.6451 4.71218 -0.559284 -0.87727 -8.367 -8.20659 0.598199 7.21462 8.99292 8.03676 -2.19222 -43.463 -0.493515 -0.412334 0.298199 -2.05478 -0.7333 -45.8593 -2.6451 -4.77794 1.85046 -19.2528 
-22.1646 103.521 -29.0758 3.18124 -8.49461 59.5875 -4.36574e-007 -1.186 -1.5018 -0.11017 2.5024 -0.396452 1.3059e-006 9.96399 0.2134 -0.20328 5.00549 -0.789122 1.35604e-006 13.134 -3.2573 -0.203282 5.00549 -0.789111 -1.32712e-006 20.686 -1.6905 -1.06465 -8.03654 -23.3661 -1.43169e-006 7.238 -0.123701 3.7165 -2.25522 -19.207 1.7069 20.075 5.0056 -0.576372 0.090963 1.07032 13.6458 -0.0470138 -4.84901 -64.0075 -0.84159 23.3325 28.3255 -0.975895 2.2888 -5.77303 6.10345 -11.1874 22.1583 -0.53 10.8316 -7.63196 -13.8197 7.37148 0.786007 0.111997 2.5817 -1.96188e-005 -0.000116575 -1.07955e-005 0.360095 -0.878 4.2331 3.81539e-006 -1.56581e-005 2.10193e-005 1.8127 -1.21601 2.2227 -1.16853e-005 1.03683e-005 -2.14023e-005 0.9571 1.114 1.7695 -1.59028e-015 1.59028e-015 6.36111e-015 4.1246 0.486991 4.1451 -8.3941e-006 -2.57649e-005 -1.06447e-005 3.4052 -1.454 2.7682 -3.59687e-005 -6.4313e-005 3.23831e-005 1.45309 -1.79499 1.2713 -6.04914e-005 -1.86815e-005 1.66139e-005 5.6954 0.209989 2.1184 -3.34636e-005 -1.24544e-005 1.74993e-005 3.9766 -1.53999 2.3863 -4.11202e-005 5.91989e-006 4.26009e-005 1.4042 -1.926 1.125 5.29033e-005 -2.25491e-005 -7.14459e-005 2.0956 0.66 -0.3894 -1.59028e-015 1.59028e-015 6.36111e-015 5.03951 -0.0900133 2.4971 -3.36826e-005 4.40579e-005 -2.02139e-005 3.7921 -1.55199 1.4806 5.45454e-005 -5.59727e-005 6.22484e-005 1.4655 -1.808 0.960899 -4.22367e-006 -0.000111219 0.000146122 4.9141 -1.269 0.3591 -2.16688e-005 2.73805e-005 2.15296e-006 3.1477 -1.68501 0.846201 -4.77751e-005 -0.000160612 3.42306e-005 0.8055 -1.58501 0.795502 -2.39403e-005 -6.46144e-005 7.4363e-005 -1.7069 20.075 5.0056 -10.214 0.00473737 -2.57665 -13.6458 -0.0470192 -4.84899 36.6567 -12.2703 1.76938 -28.3255 -0.975891 2.28879 4.50607 8.02008 33.2253 -22.1583 -0.530002 10.8316 22.3515 -18.3547 2.64867 -0.786003 0.112003 2.5817 0.000188933 -0.000197903 7.69744e-006 -0.3601 -0.87799 4.23311 -5.04715e-005 1.12221e-005 1.66623e-005 -1.81269 -1.216 2.2227 4.21263e-005 7.47634e-006 -4.28255e-005 -0.9571 1.114 1.7695 -9.54166e-015 -1.59028e-015 3.18055e-015 -4.1246 0.487016 4.1451 -1.73055e-005 0.000116649 -1.31125e-005 -3.40519 -1.454 2.7682 5.33547e-006 2.76655e-005 -1.08566e-006 -1.4531 -1.795 1.2713 -8.09696e-005 8.54244e-005 6.66746e-005 -5.69541 0.209998 2.1184 1.94658e-005 -9.97501e-006 -1.80943e-005 -3.9766 -1.54 2.3863 -6.03545e-005 5.32494e-005 3.55279e-005 -1.4042 -1.92599 1.125 -3.54872e-005 7.03273e-006 2.79307e-006 -2.0956 0.66 -0.3894 -9.54166e-015 -1.59028e-015 3.18055e-015 -5.03951 -0.0899925 2.4971 3.67747e-005 -1.51313e-005 -1.07223e-005 -3.79209 -1.552 1.4806 -3.6008e-005 0.000109965 4.92545e-005 -1.4655 -1.808 0.9609 3.1894e-005 3.52611e-006 4.27104e-005 -4.91411 -1.26899 0.359202 2.75484e-005 4.2873e-005 -2.51494e-005 -3.1477 -1.68501 0.846197 -7.84427e-007 -8.38113e-007 5.63974e-007 -0.805498 -1.585 0.795502 -3.86776e-005 1.9273e-005 3.70956e-005 8.36702 -8.20662 0.598201 12.1137 14.9096 -5.94129 2.1923 -43.463 -0.493206 0.117733 -1.4693 0.36636 0.733298 -45.8593 -2.6451 3.88093 -2.76907 -1.26231 -8.36702 -8.20662 0.598199 7.17092 8.68189 6.59232 -2.19231 -43.4631 -0.493041 -0.548577 -0.21263 -2.03561 -0.733299 -45.8593 -2.6451 -4.37169 2.18825 -19.6657 
-22.2609 103.523 -30.6186 3.08339 -8.50146 62.5291 -2.65509e-007 -1.186 -1.5018 -0.0629899 2.43696 -0.474252 -4.21732e-007 9.964 0.2134 -0.10589 4.87436 -0.947177 1.06824e-006 13.134 -3.2573 -0.105893 4.87436 -0.947158 -1.23873e-007 20.686 -1.6905 -1.15808 -7.86627 -25.2687 -1.97866e-006 7.23801 -0.1237 4.8074 -1.9639 -19.9217 1.7069 20.075 5.0056 -1.0869 0.0392184 0.533586 13.6458 -0.0470061 -4.849 -60.9382 -1.30549 22.2407 28.3255 -0.975887 2.28881 -6.82166 6.46234 -11.8787 22.1583 -0.529994 10.8316 -8.08624 -10.1301 7.71121 0.786001 0.111996 2.5817 5.58082e-005 3.53067e-005 1.49532e-005 0.360101 -0.877997 4.2331 -2.08511e-005 -1.34419e-005 2.72044e-005 1.8127 -1.21601 2.2227 -3.36476e-005 -9.64156e-006 -1.8935e-005 0.9571 1.114 1.7695 -8.82781e-031 -6.36111e-015 -7.95139e-015 4.1246 0.486992 4.1451 2.23405e-006 -1.32655e-005 -1.00869e-005 3.4052 -1.454 2.7682 -6.87081e-005 -0.000145513 3.89046e-005 1.45309 -1.79499 1.2713 -5.70214e-005 -4.09054e-005 1.8606e-005 5.69541 0.209984 2.1184 -9.68062e-006 -1.31359e-005 -1.0423e-006 3.9766 -1.54 2.3863 -4.36382e-005 -9.63913e-006 3.5613e-005 1.4042 -1.926 1.125 4.10115e-005 -6.09236e-005 -2.31989e-005 2.0956 0.66 -0.3894 -8.82781e-031 -6.36111e-015 -7.95139e-015 5.0395 -0.0900119 2.4971 -2.93876e-005 3.62975e-005 -3.801e-005 3.7921 -1.55199 1.4806 5.28326e-005 -6.89011e-005 8.34959e-005 1.4655 -1.808 0.9609 2.81231e-005 -1.0296e-005 8.95203e-007 4.9141 -1.269 0.3591 -3.53163e-005 1.62828e-005 -4.82754e-006 3.1477 -1.68501 0.846199 -5.53839e-006 3.77094e-006 -4.37463e-005 0.805496 -1.58501 0.795498 -9.01031e-006 -0.00012032 0.000124064 -1.7069 20.075 5.0056 -11.3962 0.0119715 -3.44331 -13.6458 -0.0470193 -4.849 32.7101 -18.6435 1.0516 -28.3255 -0.975895 2.2888 0.628345 -2.6568 16.8078 -22.1583 -0.530008 10.8316 27.5581 -36.6897 8.3579 -0.785999 0.112006 2.5817 9.1455e-005 2.70202e-005 -3.11905e-006 -0.360108 -0.877993 4.2331 -4.08113e-005 -1.36207e-005 1.32658e-005 -1.81269 -1.216 2.2227 4.00481e-005 1.1346e-005 -1.87651e-005 -0.9571 1.114 1.7695 0 4.77083e-015 -0 -4.12461 0.48701 4.1451 3.32111e-005 -2.00011e-005 -3.58657e-006 -3.4052 -1.45401 2.76819 -2.75589e-005 7.97528e-005 9.23389e-006 -1.4531 -1.79499 1.2713 -0.00010974 0.000173898 8.81393e-005 -5.6954 0.210007 2.1184 1.37145e-005 -1.37825e-005 2.80162e-006 -3.9766 -1.54 2.3863 -9.57702e-005 7.84397e-005 4.42555e-005 -1.4042 -1.926 1.125 -2.51615e-005 -3.57404e-006 2.86205e-006 -2.0956 0.66 -0.3894 0 4.77083e-015 -0 -5.03951 -0.0899851 2.49711 2.65778e-005 -2.81678e-005 9.6409e-006 -3.7921 -1.55201 1.48059 -8.19985e-005 0.000194544 9.8208e-005 -1.4655 -1.80801 0.960894 1.37998e-005 3.66341e-007 2.14874e-005 -4.91411 -1.26899 0.3592 -6.32593e-006 6.61833e-005 -2.19353e-005 -3.1477 -1.68501 0.846196 1.29817e-006 -2.60734e-005 2.6019e-006 -0.805498 -1.58499 0.795503 -6.76038e-005 3.44466e-005 5.29311e-005 8.367 -8.2066 0.598203 12.2434 13.9854 -7.29026 2.1923 -43.463 -0.493203 0.111895 -2.30798 0.248714 0.7333 -45.8593 -2.6451 2.05062 -4.26842 -1.78249 -8.36701 -8.2066 0.598202 6.88798 8.42541 4.89641 -2.19226 -43.463 -0.49346 -0.717386 -0.929852 -1.97012 -0.7333 -45.8593 -2.6451 -3.81663 2.77657 -20.8578 
